<svg xmlns="http://www.w3.org/2000/svg" width="31" height="24" fill="none"><path fill="#fff" fill-rule="evenodd" d="M18.073 0a2.67 2.67 0 0 1 2.219 1.187l1.28 1.922A2 2 0 0 0 23.238 4H26.7a3.467 3.467 0 0 1 3.467 3.467v13.066A3.467 3.467 0 0 1 26.7 24H4.3a3.467 3.467 0 0 1-3.467-3.467V7.467A3.467 3.467 0 0 1 4.3 4h3.463a2 2 0 0 0 1.664-.89l1.281-1.923A2.667 2.667 0 0 1 12.928 0h5.145ZM15.5 6a7.333 7.333 0 1 0 0 14.667A7.333 7.333 0 0 0 15.5 6Zm0 2.667a4.667 4.667 0 1 1 0 9.333 4.667 4.667 0 0 1 0-9.333Z" clip-rule="evenodd"></path></svg>