<svg width="77" height="24" viewBox="0 0 77 24" fill="none" xmlns="http://www.w3.org/2000/svg">
<path d="M48.5599 17.35C49.3099 14.82 58.0299 13.42 58.0299 7.11C58.0299 2.95 54.2999 1.22 50.0999 1.22C47.3799 1.24 44.7199 2.05 42.4599 3.54L43.9299 7.29C45.6499 6.34 47.4799 5.66 49.2299 5.66C50.8799 5.66 52.2599 6.28 52.2599 7.59C52.2599 11.79 42.6099 11.69 42.6099 19.67C42.6099 20.24 42.6499 20.81 42.7299 21.37H57.9699V17.35H48.5699H48.5599ZM9.02994 0.31C11.4299 0.13 14.0099 0.03 16.1099 0V3.08C15.1099 3.12 14.0099 3.18 12.9599 3.29C9.29994 3.68 8.60994 4.47 8.15994 7.95C7.84994 10.65 7.84994 13.35 8.15994 16.05C8.60994 19.53 9.29994 20.32 12.9599 20.71C14.0099 20.81 15.1199 20.88 16.1099 20.91V24C14.0099 23.97 11.4299 23.87 9.02994 23.68C2.45994 23.16 1.22994 22.1 0.429941 17.43C-0.140059 13.83 -0.140059 10.17 0.429941 6.57C1.22994 1.9 2.45994 0.84 9.02994 0.31ZM35.8299 12C35.8299 13.82 35.6899 15.63 35.3999 17.43C34.5999 22.11 33.3699 23.17 26.7999 23.68C24.3999 23.88 21.8199 23.97 19.7199 24V20.92C20.7199 20.88 21.8199 20.82 22.8599 20.71C26.5299 20.31 27.2199 19.53 27.6599 16.04C27.9799 13.36 27.9799 10.64 27.6599 7.96C27.2199 4.46 26.5299 3.68 22.8599 3.29C21.8159 3.18498 20.7687 3.11494 19.7199 3.08V0C21.8199 0.03 24.3999 0.13 26.7899 0.31C33.3699 0.83 34.5999 1.89 35.3899 6.57C35.6899 8.37 35.8299 10.18 35.8299 12Z" fill="url(#paint0_linear_26_12)"/>
<path d="M65.1 17.35C65.85 14.82 74.57 13.42 74.57 7.10997C74.57 2.94997 70.84 1.21997 66.64 1.21997C63.92 1.23997 61.26 2.04997 59 3.53997L60.47 7.28997C62.19 6.33997 64.02 5.65997 65.77 5.65997C67.42 5.65997 68.8 6.27997 68.8 7.58997C68.8 11.79 59.15 11.69 59.15 19.67C59.15 20.24 59.19 20.81 59.27 21.37H74.51V17.35H65.11H65.1Z" fill="url(#paint1_linear_26_12)"/>
<defs>
<linearGradient id="paint0_linear_26_12" x1="41.5" y1="24" x2="41.5" y2="-5.91558e-07" gradientUnits="userSpaceOnUse">
<stop stop-color="#043CDC"/>
<stop offset="1" stop-color="#01BEFF"/>
</linearGradient>
<linearGradient id="paint1_linear_26_12" x1="41.5" y1="24" x2="41.5" y2="-5.91558e-07" gradientUnits="userSpaceOnUse">
<stop stop-color="#043CDC"/>
<stop offset="1" stop-color="#01BEFF"/>
</linearGradient>
</defs>
</svg>
