<svg xmlns="http://www.w3.org/2000/svg" fill="none" viewBox="0 0 12 9"><path fill="#00a050" fill-rule="evenodd" d="M9.907.505A2.783 2.783 0 0 1 11.1 2.693c.049 1.347-.749 2.513-2.108 3.887l-.261.26-.274.266-.287.272-.298.278-.631.579-.552.502a1.018 1.018 0 0 1-1.372-.005l-.895-.813-.62-.573-.29-.277-.279-.27-.265-.264a11.94 11.94 0 0 1-.25-.26L2.48 6.02C1.448 4.88.86 3.855.9 2.693A2.784 2.784 0 0 1 2.093.505C3.44-.413 5.103.015 6 1.066 6.898.016 8.56-.418 9.907.506Z" clip-rule="evenodd"></path></svg>