<svg width="20" height="20" xmlns="http://www.w3.org/2000/svg"><path d="M2.929 17.071c3.905 3.906 10.237 3.906 14.142 0 3.906-3.905 3.906-10.237 0-14.142-3.905-3.906-10.237-3.906-14.142 0-3.905 3.905-3.905 10.237 0 14.142zm4.436-13.29l1.488 1.488a.94.94 0 01.154 1.125l-.559.992a.625.625 0 00.103.75l3.313 3.313c.198.199.505.24.75.102l.992-.559a.938.938 0 011.125.154l1.489 1.49a.94.94 0 010 1.327l-.705.705a2.508 2.508 0 01-3.029.394l-.067-.038a19.632 19.632 0 01-7.094-6.945l-.339-.565a2.502 2.502 0 01.376-3.058l.675-.675a.938.938 0 011.328 0z" fill="#041E42" fill-rule="evenodd"/></svg>