<svg viewBox="0 0 72 72" fill="none" xmlns="http://www.w3.org/2000/svg"><g clip-path="url(#3_svg__a)"><path d="M61.124 20.7c0 5.19-4.207 9.42-9.424 9.42s-9.424-4.23-9.424-9.42c0-5.19 4.207-9.42 9.424-9.42a9.422 9.422 0 0 1 9.424 9.42Z" fill="#F6A119"></path><path d="m37.059 6.092 4.992 4.963m19.298 19.29 4.992 4.964M51.7 0v7.05m0 27.3v7.05M66.341 6.092l-4.992 4.963M42.05 30.345l-4.992 4.964M72.4 20.7h-7.068m-27.264 0H31m30.124 0c0 5.19-4.207 9.42-9.424 9.42s-9.424-4.23-9.424-9.42c0-5.19 4.207-9.42 9.424-9.42a9.422 9.422 0 0 1 9.424 9.42Z" stroke="#232956" stroke-width="2" stroke-miterlimit="10"></path><path d="M46.907 23.163c-1.842 0-3.531.385-5.067 1.077-.691-5.527-5.452-9.75-11.211-9.75-6.218 0-11.286 5.067-11.286 11.211 0 1.304.232 2.613.692 3.763-.232 0-.46-.078-.692-.078-5.22 0-9.443 4.223-9.443 9.369s4.223 9.368 9.443 9.368h27.564c6.91 0 12.59-5.605 12.59-12.515-.079-6.91-5.68-12.436-12.59-12.436v-.009Z" fill="#ECECEB"></path><path d="M46.907 23.163c-1.842 0-3.531.385-5.067 1.077-.691-5.527-5.452-9.75-11.211-9.75-6.218 0-11.286 5.067-11.286 11.211 0 1.304.232 2.613.692 3.763-.232 0-.46-.078-.692-.078-5.22 0-9.443 4.223-9.443 9.369s4.223 9.368 9.443 9.368h27.564c6.91 0 12.59-5.605 12.59-12.515-.079-6.91-5.68-12.436-12.59-12.436v-.009Z" stroke="#232956" stroke-width="2" stroke-miterlimit="10"></path></g><defs><clipPath id="3_svg__a"><path fill="#fff" d="M0 0h72v72H0z"></path></clipPath></defs></svg>