<svg viewBox="0 0 72 72" fill="none" xmlns="http://www.w3.org/2000/svg"><path d="M48.661 35.84c0 7.06-5.723 12.814-12.82 12.814-7.098 0-12.82-5.754-12.82-12.813 0-7.06 5.723-12.814 12.82-12.814s12.82 5.755 12.82 12.814Z" fill="#F6A119"></path><path d="m15.923 15.968 6.792 6.752m26.251 26.241 6.792 6.752M35.841 7.681v9.591m0 37.137V64m19.917-48.032-6.792 6.752M22.715 48.961l-6.792 6.752M64 35.841h-9.615m-37.089 0H7.681m40.98 0c0 7.059-5.723 12.813-12.82 12.813-7.098 0-12.82-5.754-12.82-12.813 0-7.06 5.723-12.814 12.82-12.814s12.82 5.755 12.82 12.814Z" stroke="#232956" stroke-width="2" stroke-miterlimit="10"></path></svg>