<svg width="24" height="24" fill="none" xmlns="http://www.w3.org/2000/svg"><path fill-rule="evenodd" clip-rule="evenodd" d="M11.45 9.88h1.092v4.003H11.45V9.88Zm4.209 5.406 3.02-2.937.773.751-3.021 2.937-.773-.75ZM4.537 13.102l.773-.75 3.021 2.937-.772.75-3.022-2.937Zm10.219-7.457-2.76 2.68-2.756-2.68.77-.754 1.44 1.403V3h1.092v3.294l1.444-1.403.77.754Zm2.325 13.793H22V20.5H2v-1.062h4.919c.088-2.654 2.33-4.78 5.081-4.78 2.752 0 4.993 2.122 5.081 4.78Zm-1.093 0C15.9 17.372 14.146 15.72 12 15.72s-3.9 1.651-3.988 3.717h7.976Z" fill="#52556D"></path></svg>