<svg viewBox="0 0 72 72" fill="none" xmlns="http://www.w3.org/2000/svg"><g clip-path="url(#25_svg__a)"><path d="M47.259 23.32c-1.855 0-3.556.388-5.102 1.084-.696-5.564-5.49-9.816-11.287-9.816-6.26 0-11.363 5.102-11.363 11.288 0 1.313.234 2.63.696 3.788-.233 0-.462-.079-.695-.079-5.256 0-9.508 4.252-9.508 9.433 0 5.18 4.252 9.432 9.508 9.432h27.75c6.957 0 12.676-5.644 12.676-12.6-.08-6.957-5.719-12.521-12.675-12.521v-.008Z" fill="#232956"></path><path d="M47.259 23.32c-1.855 0-3.556.388-5.102 1.084-.696-5.564-5.49-9.816-11.287-9.816-6.26 0-11.363 5.102-11.363 11.288 0 1.313.234 2.63.696 3.788-.233 0-.462-.079-.695-.079-5.256 0-9.508 4.252-9.508 9.433 0 5.18 4.252 9.432 9.508 9.432h27.75c6.957 0 12.676-5.644 12.676-12.6-.08-6.957-5.719-12.521-12.675-12.521v-.008ZM55.05 63.526 46.63 72M44.2 63.526 35.78 72M33.349 63.526 24.929 72M22.424 63.526 14 72M55.05 52.52l-8.42 8.465M44.2 52.52l-8.42 8.465M33.349 52.52l-8.42 8.465M22.424 52.52 14 60.985" stroke="#232956" stroke-width="2" stroke-miterlimit="10"></path></g><defs><clipPath id="25_svg__a"><path fill="#fff" d="M0 0h72v72H0z"></path></clipPath></defs></svg>