<svg width="24" height="24" fill="none" xmlns="http://www.w3.org/2000/svg"><path fill-rule="evenodd" clip-rule="evenodd" d="M11.45 9.923h1.093v3.987H11.45V9.923Zm4.209 5.385 3.02-2.925.773.748-3.021 2.925-.773-.748ZM4.537 13.133l.773-.748 3.021 2.925-.772.748-3.022-2.925ZM9.24 5.668 12 3l2.756 2.668-.77.751-1.44-1.397v3.28h-1.092v-3.28L10.01 6.419l-.77-.751Zm7.841 13.774c-.088-2.646-2.33-4.76-5.081-4.76-2.752 0-4.993 2.117-5.081 4.76H2V20.5h20v-1.058h-4.919Zm-1.093 0c-.088-2.057-1.842-3.701-3.988-3.701s-3.9 1.644-3.988 3.701h7.976Z" fill="#52556D"></path></svg>