<svg viewBox="0 0 180 180" fill="none" xmlns="http://www.w3.org/2000/svg"><path d="M119.386 55.96c-4.45 0-8.53.926-12.24 2.596C105.477 45.2 93.98 35 80.071 35c-15.022 0-27.26 12.242-27.26 27.08 0 3.153.556 6.306 1.668 9.088-.556 0-1.112-.185-1.669-.185C40.2 70.983 30 81.184 30 93.612c0 12.427 10.2 22.628 22.81 22.628h66.576c16.69 0 30.414-13.54 30.414-30.233s-13.538-30.048-30.414-30.048Z" fill="#232956"></path><path d="M119.386 55.96c-4.45 0-8.53.926-12.24 2.596C105.477 45.2 93.98 35 80.071 35c-15.022 0-27.26 12.242-27.26 27.08 0 3.153.556 6.306 1.668 9.088-.556 0-1.112-.185-1.669-.185C40.2 70.983 30 81.184 30 93.612c0 12.427 10.2 22.628 22.81 22.628h66.576c16.69 0 30.414-13.54 30.414-30.233s-13.538-30.048-30.414-30.048ZM61.4 126 41 146.4M87.92 126l-20.4 20.4M61.4 152.34 41 172.74M87.92 152.34l-20.4 20.4M119.08 172.74v-46.73M139.48 161.05l-40.8-23.37M139.48 137.69l-40.8 23.37" stroke="#232956" stroke-width="4" stroke-miterlimit="10"></path></svg>