<svg viewBox="0 0 72 72" fill="none" xmlns="http://www.w3.org/2000/svg"><path d="M46.907 23.163c-1.842 0-3.531.385-5.067 1.077-.691-5.527-5.452-9.75-11.211-9.75-6.218 0-11.286 5.067-11.286 11.211 0 1.304.232 2.613.692 3.763-.232 0-.46-.078-.692-.078-5.22 0-9.443 4.223-9.443 9.369s4.223 9.368 9.443 9.368h27.564c6.91 0 12.59-5.605 12.59-12.515-.079-6.91-5.68-12.436-12.59-12.436v-.009Z" fill="#232956"></path><path d="M46.907 23.163c-1.842 0-3.531.385-5.067 1.077-.691-5.527-5.452-9.75-11.211-9.75-6.218 0-11.286 5.067-11.286 11.211 0 1.304.232 2.613.692 3.763-.232 0-.46-.078-.692-.078-5.22 0-9.443 4.223-9.443 9.369s4.223 9.368 9.443 9.368h27.564c6.91 0 12.59-5.605 12.59-12.515-.079-6.91-5.68-12.436-12.59-12.436v-.009Z" stroke="#232956" stroke-width="2" stroke-miterlimit="10"></path></svg>