<svg height="24" viewBox="0 0 77 24" width="77" xmlns="http://www.w3.org/2000/svg" xmlns:xlink="http://www.w3.org/1999/xlink"><defs><path d="M0.428214112,6.57104942 C-0.142738037,10.1680234 -0.142738037,13.8324012 0.428214112,17.4293752 C1.22316667,22.1060566 2.44535309,23.1647115 8.99457186,23.6853336 C11.3751785,23.8738787 13.9509098,23.9668772 16.0407423,24 L16.0407423,20.9195817 C15.0498148,20.883911 13.944108,20.8180901 12.9059935,20.7072562 C9.25516326,20.3191252 8.57328952,19.530973 8.13117687,16.0437391 C7.81285528,13.3571476 7.81285528,10.6424278 8.13117687,7.9558363 C8.57286441,4.46647911 9.25473816,3.67960083 12.9059935,3.29146982 C13.944108,3.18106057 15.0498148,3.11523966 16.0407423,3.07914433 L16.0407423,0 C13.9509098,0.0331227772 11.3747533,0.127395297 8.99457186,0.313392431 C2.44492798,0.835713148 1.22316667,1.89266946 0.428214112,6.57020012 L0.428214112,6.57104942 Z M26.6744018,0.313392431 C24.2937952,0.125696693 21.718489,0.0331227772 19.6286565,0 L19.6286565,3.07914433 C20.6187338,3.11439036 21.7248656,3.18063591 22.7621299,3.29146982 C26.4142355,3.67960083 27.0944088,4.46562981 27.5369466,7.95541165 C27.8560632,10.6420983 27.8560632,13.3570524 27.5369466,16.0437391 C27.0956841,19.530973 26.4142355,20.3191252 22.7621299,20.7072562 C21.7248656,20.8180901 20.6187338,20.8843357 19.6286565,20.9195817 L19.6286565,23.9995753 C21.718489,23.9664526 24.2950705,23.8721801 26.6744018,23.684909 C33.2240457,23.1638622 34.4462321,22.1056319 35.2407595,17.4285259 C35.8115393,13.8316808 35.8115393,10.1674699 35.2407595,6.57062477 C34.4462321,1.89309411 33.2240457,0.835713148 26.6744018,0.313817082 L26.6744018,0.313392431 Z M76.6671402,14.879346 C74.7192939,15.2097245 73.9115881,14.9260576 73.9115881,13.8635809 L73.9115881,8.57073093 L76.7598138,8.57073093 L76.7598138,5.49923032 L73.9115881,5.49923032 L73.9115881,2.47529062 L70.1111197,2.47529062 L69.6362737,5.49923032 L67.7356144,5.73576092 L67.7356144,8.57073093 L69.6362737,8.57073093 L69.6362737,14.3349435 C69.6362737,18.7513138 73.6029594,19.0362546 77,17.8790806 L76.6671402,14.879346 Z M61.4792952,7.36642072 L61.1706666,5.50007962 L57.1321376,5.50007962 L57.1321376,18.1156112 L61.407877,18.1156112 L61.407877,10.9814746 C62.6670479,9.35208875 63.8777564,8.83146664 66.2541119,9.1151335 L66.5865466,5.19305696 C64.2586534,4.98073146 62.2393889,5.97356548 61.4792952,7.36684537 L61.4792952,7.36642072 Z M48.4505755,5.14507139 C46.4812843,5.11620468 44.5340255,5.56178327 42.773679,6.44407877 L43.1061137,9.42130686 C44.5884874,8.86759678 46.1571945,8.58007028 47.7397943,8.57200488 C49.1171453,8.57200488 49.9482321,8.99665587 49.9482321,9.98906524 L49.9482321,10.3912097 C45.9581654,9.49349753 41.9434424,10.6510961 41.9434424,14.5489676 C41.9434424,16.8641648 43.7250714,18.4706195 46.0053524,18.4706195 C47.4490096,18.522263 48.8583898,18.0240841 49.9482321,17.0769149 L50.1858676,18.1164605 L54.2243967,18.1164605 L54.2243967,9.56144169 C54.2243967,6.25383513 51.4688445,5.14507139 48.452701,5.14507139 L48.4505755,5.14507139 Z M49.9486572,14.4058602 C49.413521,15.0068913 48.6620938,15.3720489 47.8583996,15.4216254 C47.0035067,15.4216254 46.3386373,15.0203302 46.3386373,14.2640268 C46.3386373,13.1068528 47.5493458,12.4919582 49.9486572,13.0592919 L49.9486572,14.4058602 Z" id="ct-art-color-a"></path></defs><use fill="#a4a3b6" fill-rule="evenodd" xlink:href="#ct-art-color-a"></use></svg>