<svg height="24" viewBox="0 0 108 24" width="108" xmlns="http://www.w3.org/2000/svg" xmlns:xlink="http://www.w3.org/1999/xlink"><defs><path d="M36.0550702,11.9997883 C36.0550702,13.4069462 35.9565462,15.479583 35.6222528,17.4286067 C34.8194323,22.1060096 33.5846549,23.1643413 26.9633224,23.6850405 C24.5578727,23.8734235 21.953654,23.9669801 19.8411951,24 L19.8411951,20.919408 C20.8419241,20.8838481 21.9605378,20.8178082 23.0081625,20.706895 C26.7004482,20.3191223 27.3888258,19.5308768 27.8349806,16.0434622 C28.0212728,14.593971 28.0772035,13.0488067 28.0772035,12.001905 C28.0772035,10.9511933 28.0212728,9.40899229 27.8349806,7.95484451 C27.3888258,4.46573651 26.7004482,3.67833771 23.0081625,3.29056497 C21.9605378,3.18049847 20.8419241,3.11445858 19.8411951,3.07889863 L19.8411951,0 C21.953654,0.0330199496 24.5578727,0.125729808 26.9633224,0.313266188 C33.5846549,0.834812058 34.8194323,1.89229711 35.6222528,6.57054663 C35.9565462,8.51957032 36.0550702,10.5913605 36.0550702,11.9997883 Z M16.2147356,0 L16.2147356,3.07889863 C15.2127159,3.11445858 14.0949627,3.18049847 13.045617,3.29056497 C9.35505229,3.67833771 8.66581416,4.46573651 8.21922916,7.95484451 C8.03293696,9.40899229 7.97786675,10.9511933 7.97786675,12.001905 C7.97786675,13.0488067 8.03293696,14.593971 8.21922916,16.0434622 C8.66581416,19.5308768 9.35505229,20.3191223 13.045617,20.706895 C14.0949627,20.8178082 15.2127159,20.8838481 16.2147356,20.919408 L16.2147356,24 C14.1018464,23.9669801 11.4976277,23.8734235 9.09174783,23.6850405 C2.47127577,23.1643413 1.23606812,22.1060096 0.432817448,17.4286067 C0.0980938154,15.479583 0,13.4069462 0,11.9997883 C0,10.5913605 0.0980938154,8.51957032 0.432817448,6.57054663 C1.23606812,1.89229711 2.47127577,0.834812058 9.09174783,0.313266188 C11.4976277,0.125729808 14.1018464,0.0330199496 16.2147356,0 Z M64.847326,5.13544882 C67.5655572,5.13544882 70.0179026,7.05187589 70.0179026,10.9562733 C70.0179026,16.0197555 66.3385241,18.4801651 63.1642426,18.4801651 C61.86536,18.4801651 60.7837466,18.2435221 59.7735524,17.675833 L59.2447924,22.5970755 L54.9157574,22.5970755 L56.7434001,5.48977828 L60.8315028,5.48977828 L60.9760621,6.53117669 C62.1540484,5.60831143 63.5493039,5.13544882 64.847326,5.13544882 Z M48.9027786,5.13544882 C50.6340484,5.13544882 52.4371676,5.46691831 53.9047027,6.10530401 L53.2791395,8.96830297 C51.2591814,8.40061383 49.7202271,8.23509075 48.7586495,8.23509075 C47.3397311,8.23509075 47.0269495,8.61355017 47.0269495,9.08641278 C47.0269495,10.4821407 53.6642008,9.29977246 53.6642008,13.9847953 C53.6642008,17.2258303 50.6818046,18.4801651 47.4356737,18.4801651 C45.4634718,18.4801651 43.4198506,18.1486956 41.953176,17.5103099 L42.5783089,14.6468876 C44.5982671,15.2150001 46.1372214,15.3805232 47.5798028,15.3805232 C48.9264416,15.3805232 49.3115028,15.1197502 49.3115028,14.5287778 C49.3115028,13.1330499 42.6746818,14.3154181 42.6746818,9.63081862 C42.6746818,6.20013053 45.6321243,5.13544882 48.9027786,5.13544882 Z M79.5665611,5.13544882 C83.6542336,5.13544882 86.082916,7.61998836 86.082916,11.121373 C86.082916,15.3572399 82.9090648,18.4801651 78.1235494,18.4801651 C74.0358769,18.4801651 71.6067643,15.9956256 71.6067643,12.4938176 C71.6067643,8.25795072 74.8051389,5.13544882 79.5665611,5.13544882 Z M104.729776,2.46125624 L104.392901,5.48977828 L108,5.48977828 L107.663555,8.56571358 L104.056457,8.56571358 L103.527266,13.6533258 C103.383137,15.0968903 105.06622,15.2150001 107.086179,14.8835306 L107.086179,17.8887693 C103.334951,19.0482776 98.6458082,18.763798 99.1268121,14.3395481 L100.424834,2.46125624 L104.729776,2.46125624 Z M98.2749447,5.15915545 L97.8425575,9.11054275 C97.433403,9.06270615 97.0492023,9.03942286 96.7123275,9.03942286 C95.0051509,9.03942286 93.922677,9.63081862 92.7201673,10.9791332 L91.9754287,18.1254123 L87.646824,18.1254123 L88.9930326,5.48977828 L93.0811353,5.48977828 L93.1779385,7.35963876 C94.0427129,6.01090082 96.1353809,5.01691567 98.2749447,5.15915545 Z M79.2055931,8.44760376 C77.5466029,8.44760376 76.1999641,10.0566913 76.1999641,12.233468 C76.1999641,13.9606653 77.1137855,15.1680102 78.4840872,15.1680102 C80.1439379,15.1680102 81.4901466,13.5589226 81.4901466,11.3821459 C81.4905766,9.65452525 80.5763251,8.44760376 79.2055931,8.44760376 Z M62.851461,8.58984354 C62.1540484,8.58984354 61.3847864,8.80320322 60.6873738,9.20494594 L60.1345205,14.410668 C60.7596534,14.8124107 61.4811592,15.0257704 62.1781416,15.0257704 C63.8616552,15.0257704 65.4247027,13.9136754 65.4247027,11.358016 C65.4247027,9.44116558 64.2703794,8.58984354 62.851461,8.58984354 Z" id="ct-sport-color-a"></path></defs><use fill="#7ebc00" fill-rule="evenodd" xlink:href="#ct-sport-color-a"></use></svg>