<svg width="74" height="24" xmlns="http://www.w3.org/2000/svg"><g fill="#000" fill-rule="evenodd"><path d="M47.244 18c1.293 0 2.675-.266 3.862-.692l-.248-2.075c-1.134.266-2.161.444-3.065.444-1.452 0-2.48-.48-2.834-1.632h6.484c.638-2.855-.69-5.977-4.411-5.977-3.278 0-5.032 2.2-5.032 4.966C42 16.51 44.41 18 47.244 18zm1.417-6.065h-3.667c.301-.994 1.01-1.739 2.038-1.739.939 0 1.612.533 1.63 1.739zM56.92 18a4.36 4.36 0 002.8-1.046l.177.78h2.71V5H59.72v3.724c-.833-.46-1.684-.656-2.64-.656-2.18 0-4.465 1.65-4.465 4.966 0 3.334 2.126 4.966 4.305 4.966zm1.046-2.359c-1.223 0-2.304-.833-2.304-2.607 0-1.773 1.081-2.59 2.304-2.59.567 0 1.204.178 1.754.55v4.08c-.55.372-1.187.567-1.754.567zM67.923 18c1.187 0 2.25-.39 3.171-1.046l.178.78H74v-9.4h-2.906v6.74c-.602.354-1.31.567-1.948.567-.869 0-1.577-.443-1.577-1.702V8.334H64.68v5.605c0 2.908 1.453 4.061 3.242 4.061zM15.99 0v3.08c-.988.034-2.09.1-3.125.21-3.64.389-4.32 1.176-4.76 4.665a34.127 34.127 0 00-.238 4.047c0 1.047.055 2.592.238 4.041.44 3.488 1.12 4.276 4.76 4.664 1.035.11 2.137.177 3.125.212V24a115.755 115.755 0 01-7.024-.315c-6.529-.52-7.747-1.58-8.54-6.257C.097 15.48 0 13.407 0 12c0-1.408.097-3.48.427-5.428C1.219 1.893 2.437.835 8.966.313 11.338.126 13.906.033 15.99 0zm3.576 0c2.084.033 4.652.125 7.024.313 6.529.522 7.747 1.58 8.539 6.258.33 1.948.427 4.02.427 5.428 0 1.408-.098 3.48-.427 5.43-.792 4.677-2.01 5.735-8.54 6.256-2.371.188-4.94.282-7.023.315v-3.081a45.09 45.09 0 003.124-.212c3.64-.388 4.32-1.176 4.76-4.664.183-1.449.238-2.994.238-4.041 0-1.051-.055-2.593-.239-4.047-.44-3.49-1.119-4.276-4.76-4.664a45.611 45.611 0 00-3.123-.212V0z"/></g></svg>