<svg width="24" height="24" xmlns="http://www.w3.org/2000/svg"><defs><radialGradient cx="0%" cy="100%" fx="0%" fy="100%" r="141.421%" id="a"><stop stop-color="#FFDA80" offset="0%"/><stop stop-color="#FB8F2F" offset="28.021%"/><stop stop-color="#E13269" offset="54.215%"/><stop stop-color="#BD309D" offset="78.737%"/><stop stop-color="#9237BF" offset="100%"/></radialGradient></defs><path d="M12 1c6.075 0 11 4.925 11 11s-4.925 11-11 11S1 18.075 1 12 5.925 1 12 1zm-.47 5L10.977 6l-.552.005-.638.018-.558.027a4.405 4.405 0 00-1.159.263A3.068 3.068 0 006.314 8.07c-.14.373-.228.763-.263 1.159l-.016.298-.02.5-.014.95v2.048l.007.65.02.656.023.442c.035.396.124.786.263 1.159a3.068 3.068 0 001.755 1.755c.373.14.763.228 1.159.263l.298.016.506.02.57.011 1.867.004 1.085-.006.776-.023.442-.023a4.405 4.405 0 001.159-.262 3.068 3.068 0 001.755-1.755c.14-.373.228-.763.263-1.159l.016-.298.018-.449.014-.711L18 11.53l-.004-.93-.018-.763-.03-.61a4.405 4.405 0 00-.262-1.159 3.068 3.068 0 00-1.755-1.755 4.405 4.405 0 00-1.159-.263l-.298-.016-.449-.018-.638-.013L11.531 6zm1.872 1.085l.262.004.989.037c.302.024.6.09.886.196.523.202.937.616 1.139 1.139.106.285.172.584.196.886l.032.754.008.43.004 2.31-.009.927-.035.885c-.024.302-.09.6-.196.886a1.987 1.987 0 01-1.139 1.139 3.32 3.32 0 01-.886.196l-.775.032-.496.01-2.224.002-.96-.01-.85-.034a3.32 3.32 0 01-.887-.196 1.987 1.987 0 01-1.139-1.139 3.319 3.319 0 01-.196-.886l-.029-.663-.012-.588-.003-2.283.007-.783.037-.989a3.32 3.32 0 01.196-.886 1.987 1.987 0 011.139-1.139 3.32 3.32 0 01.886-.196l.663-.029.588-.012h2.804zM12 8.919a3.081 3.081 0 00-.181 6.157l.181.005.204-.006A3.081 3.081 0 0012 8.919zm0 1.08A2 2 0 1112 14a2 2 0 010-4zm3.203-1.922a.72.72 0 100 1.44.72.72 0 000-1.44z" fill="url(#a)" fill-rule="evenodd"/></svg>