<svg xmlns="http://www.w3.org/2000/svg" width="117" height="24"><g fill="none" fill-rule="evenodd"><path fill="#041E42" d="M115.15 8.188h-2.913v9.342h2.914V8.188zM117 4.557h-3.268l-1.493 2.838h2.345L117 4.557zm-16.293 12.97h2.914V10.83a4.196 4.196 0 011.955-.547c.87 0 1.58.423 1.58 1.675v5.568h2.896v-5.568c0-2.89-1.457-4.037-3.251-4.037a5.482 5.482 0 00-3.18 1.04l-.181-.774h-2.735v9.341h.002zm-3.225-12.97h-3.268L92.72 7.395h2.345l2.417-2.838zm-4.903 10.151c0-.951.996-1.48 3.04-1.005v1.164a2.551 2.551 0 01-1.76.828c-.71 0-1.28-.334-1.28-.986v-.001zm-3.002.195c0 1.727 1.369 2.89 3.074 2.89a4.24 4.24 0 002.968-1.074l.178.81h2.736v-6.348c0-2.414-2.008-3.26-4.23-3.26a9.254 9.254 0 00-4.103.934l.249 2.044a9.865 9.865 0 013.393-.635c1.084 0 1.777.353 1.777 1.217v.352c-3.198-.686-6.041.282-6.041 3.067v.003zm-4.503 2.622h2.914V4.872h-2.914v12.653zm-2.525-9.342h-2.914v9.342h2.914V8.183zm1.849-3.63H81.13L79.637 7.39h2.345l2.416-2.838zm-9.276 10.38c0 .51-.39.722-1.403.722a12.889 12.889 0 01-3.66-.546l-.232 1.974a11.06 11.06 0 004.052.705c2.22 0 4.14-.865 4.14-2.944 0-3.86-5.384-2.75-5.384-4.053 0-.476.284-.74 1.368-.74 1.127.036 2.244.22 3.323.547l.248-1.974a10.142 10.142 0 00-3.713-.706c-2.185 0-4.122.741-4.122 2.961 0 3.842 5.383 2.75 5.383 4.054zm-13.454-6.75h-3.126l3.57 9.342h.533l-1.28 3.33h3.057l4.85-12.67h-3.054L63.96 14.6h-.052l-2.24-6.416zM49.605 5.857h-3.198l4.441 11.666h3.566l4.424-11.666H55.71l-3.02 8.741h-.071l-3.015-8.741zm-7.652.035c0 .935.409 1.428 1.724 1.428S45.4 6.827 45.4 5.892c0-.952-.409-1.444-1.724-1.444s-1.724.492-1.724 1.444zm.266 11.631h2.905V8.181h-2.913v9.342h.008zM8.971.313C11.345.126 13.915.033 16 0v3.08c-.989.034-2.092.1-3.127.21C9.23 3.68 8.55 4.467 8.11 7.956a34.107 34.107 0 00-.238 4.047c0 1.047.055 2.592.238 4.041.441 3.488 1.121 4.276 4.763 4.664a45.21 45.21 0 003.127.212V24a115.895 115.895 0 01-7.029-.315c-6.532-.52-7.751-1.58-8.544-6.257C.097 15.48 0 13.407 0 12c0-1.408.097-3.48.427-5.428C1.22 1.893 2.44.835 8.971.313"/><path fill="#ED1C24" d="M35.556 12c0 1.407-.098 3.48-.428 5.428-.792 4.678-2.01 5.736-8.544 6.257a116.21 116.21 0 01-7.028.315v-3.081a45.15 45.15 0 003.125-.212c3.643-.388 4.323-1.176 4.763-4.664.184-1.449.239-2.994.239-4.041 0-1.051-.055-2.593-.24-4.047-.44-3.49-1.119-4.276-4.762-4.664a45.671 45.671 0 00-3.125-.212V0c2.085.033 4.654.125 7.028.313 6.533.522 7.752 1.58 8.544 6.258.33 1.948.428 4.02.428 5.428"/></g></svg>