<?xml version="1.0" encoding="UTF-8" standalone="no"?>
<svg
   width="32"
   height="32"
   viewBox="0 0 32 32"
   fill="none"
   version="1.1"
   id="svg11"
   sodipodi:docname="threadsHover.svg"
   inkscape:version="1.1.2 (b8e25be8, 2022-02-05)"
   xmlns:inkscape="http://www.inkscape.org/namespaces/inkscape"
   xmlns:sodipodi="http://sodipodi.sourceforge.net/DTD/sodipodi-0.dtd"
   xmlns="http://www.w3.org/2000/svg"
   xmlns:svg="http://www.w3.org/2000/svg">
  <defs
     id="defs15" />
  <sodipodi:namedview
     id="namedview13"
     pagecolor="#ffffff"
     bordercolor="#666666"
     borderopacity="1.0"
     inkscape:pageshadow="2"
     inkscape:pageopacity="0.0"
     inkscape:pagecheckerboard="0"
     showgrid="false"
     inkscape:zoom="22.46875"
     inkscape:cx="10.659249"
     inkscape:cy="16.534075"
     inkscape:window-width="1726"
     inkscape:window-height="969"
     inkscape:window-x="0"
     inkscape:window-y="38"
     inkscape:window-maximized="0"
     inkscape:current-layer="svg11" />
  <circle
     style="fill:#ffffff;fill-rule:evenodd"
     id="path424"
     cx="15.933241"
     cy="15.977746"
     r="12.684283" />
  <path
     fill-rule="evenodd"
     clip-rule="evenodd"
     d="M30.6667 16C30.6667 7.8998 24.1002 1.33331 16 1.33331C7.89986 1.33331 1.33337 7.8998 1.33337 16C1.33337 24.1002 7.89986 30.6666 16 30.6666C24.1002 30.6666 30.6667 24.1002 30.6667 16ZM19.6487 15.3204C19.7197 15.3508 19.7897 15.3826 19.8586 15.4157C20.8327 15.883 21.5452 16.5906 21.9188 17.4617C22.4397 18.6766 22.4872 20.6555 20.907 22.2342C19.6992 23.441 18.233 23.9856 16.1529 24H16.1436C13.804 23.9838 12.0048 23.1965 10.7962 21.6601C9.72065 20.2928 9.16586 18.3903 9.14721 16.0056L9.14716 16L9.14721 15.9944C9.16586 13.6096 9.72065 11.7072 10.7962 10.3399C12.0048 8.80346 13.804 8.01619 16.1436 7.99998H16.1529C18.4973 8.01624 20.3168 8.80054 21.5609 10.3311C22.1747 11.0863 22.6258 11.9968 22.9125 13.0535L21.5669 13.4125C21.3304 12.554 20.9717 11.8178 20.4958 11.2323C19.5254 10.0384 18.0628 9.42592 16.1483 9.41169C14.2475 9.42581 12.81 10.0354 11.8753 11.2235C11.0001 12.3361 10.5478 13.9431 10.5309 16C10.5478 18.0568 11.0001 19.6638 11.8753 20.7764C12.81 21.9646 14.2475 22.5741 16.1483 22.5882C17.8618 22.5756 18.9957 22.168 19.9389 21.2256C21.0155 20.15 20.9954 18.8306 20.6511 18.0276C20.4486 17.5553 20.0819 17.1624 19.5872 16.8638C19.4667 17.7619 19.1937 18.4746 18.7622 19.0246C18.1941 19.7489 17.3797 20.145 16.3415 20.2019C15.5554 20.2448 14.799 20.0552 14.2117 19.6676C13.5171 19.209 13.1106 18.507 13.0671 17.691C12.9814 16.0823 14.2575 14.9246 16.2426 14.8103C16.9472 14.7699 17.6064 14.8017 18.2159 14.9053C18.135 14.4104 17.9716 14.0183 17.7272 13.7345C17.3915 13.3447 16.8727 13.1448 16.1853 13.1404L16.1662 13.1404C15.6143 13.1404 14.8648 13.2948 14.3872 14.0194L13.239 13.2317C13.8782 12.2617 14.9169 11.7287 16.1657 11.7287L16.194 11.7287C18.2818 11.7421 19.5252 13.0448 19.6487 15.3204ZM14.4488 17.6143C14.4934 18.4507 15.3972 18.8412 16.2672 18.7922C17.119 18.7455 18.0858 18.4112 18.2507 16.3527C17.8087 16.2561 17.3227 16.2056 16.8031 16.2056C16.6452 16.2056 16.4844 16.2103 16.3206 16.2197C14.8901 16.3021 14.4158 16.9941 14.4488 17.6143Z"
     fill="black"
     id="path9" />
</svg>
