<svg xmlns="http://www.w3.org/2000/svg" width="24" height="24" viewBox="0 0 24 24">
  <g fill="none" fill-rule="evenodd">
    <text fill="#6F6F6F" font-family="SourceSansPro-Regular, Source Sans Pro" font-size="14" letter-spacing=".2"
      transform="translate(-32 -8)">
      <tspan x="19.29" y="64.45">Social </tspan>
      <tspan x="11.86" y="80.45">YouTube</tspan>
    </text>
    <path fill="#041E42"
      d="M12 1a11 11 0 1 1 0 22 11 11 0 0 1 0-22zm1.43 6.01h-2.86l-.5.02-.47.02-.44.02-.4.04-.2.02-.35.05-.17.02-.3.06c-1.3.3-1.81.87-2.02 2l-.04.26-.02.14-.02.3-.02.32-.02.52v2.4l.02.52.02.32.02.3.02.14.04.27c.2 1.12.72 1.7 2.01 1.99l.31.06.17.02.36.05.19.02.4.04.44.02.47.02.5.02h2.86l.5-.02.47-.02.44-.02.4-.04.2-.02.35-.05.17-.02.3-.06c1.35-.3 1.85-.91 2.04-2.12l.04-.28.02-.3.03-.49.01-.35.01-.99V10.8l-.02-.35-.03-.49-.02-.3-.04-.28c-.19-1.2-.69-1.82-2.03-2.12l-.31-.06a8.2 8.2 0 0 0-.17-.02l-.36-.05-.38-.04-.21-.02-.44-.02-.47-.02-.5-.02zm-2.83 3.4c0-.3.2-.47.44-.39l.08.03 3.27 1.68c.25.14.28.34.07.5l-.08.04-3.26 1.68c-.26.13-.48 0-.51-.28l-.01-.09v-3.16z" />
  </g>
</svg>
